<?xml version="1.0" encoding="utf-8"?>
<!-- Generator: Adobe Illustrator 26.0.3, SVG Export Plug-In . SVG Version: 6.00 Build 0)  -->
<svg version="1.1" id="ac3013e0-2b91-470c-9f50-43b45c4b24eb"
	 xmlns="http://www.w3.org/2000/svg" xmlns:xlink="http://www.w3.org/1999/xlink" x="0px" y="0px" viewBox="0 0 54.8 51.3"
	 style="enable-background:new 0 0 54.8 51.3;" xml:space="preserve">
<style type="text/css">
	.st0{fill:#FFFFFF;}
	.st1{fill:#00447C;}
</style>
<g id="a8a405b2-e921-401f-b45e-40e3b204f17e">
	<path class="st0" d="M50.8,32h-0.5v1.3H50V32h-0.5v-0.3h1.2L50.8,32z M52.8,33.3h-0.3V32l0,0L52,33.2h-0.3L51.3,32l0,0v1.2H51v-1.5
		h0.5l0.3,1l0,0l0.4-1h0.5L52.8,33.3z"/>
	<path class="st0" d="M52.8,36.6c-0.7-0.7-1.8-1.7-3.1-1.1c-0.8,0.5-1.3,1.4-1.2,2.3c0,0.3,0,0.5,0,0.8c0,0.3,0,0.5,0,0.8
		c0,2.3-1.1,3.7-2.4,3.9c-0.9,0-4.1-2.7-5.7-9c5.9-2.2,8.1-5.7,8.8-8.3c0.2-0.9,0.4-1.8,0.4-2.6c0.1-1.5-0.3-3-1.2-4.3
		c-0.6-0.9-1.7-1.3-2.8-1.1c-1.4,0.5-1.6,2.1-1.7,2.7c-0.3,2.4-1.6,4.1-4.3,5.5C40,19.2,42.5,11.8,47,4.4c0.5-0.7,0.8-1.5,0.9-2.4
		c0-0.5-0.2-1-0.6-1.4c-1.2-1.2-2.7-0.3-3.6,0.3L43.5,1C30.3,7.9,23.7,21.1,18.8,30.8l-0.2,0.3c-7.5,2.8-8.8,8-8.8,8
		c-0.1,0.3-0.1,0.7-0.1,1c0,0.6,0.2,1.2,0.7,1.6c0.3,0.2,0.6,0.4,1,0.4c-0.4,0.3-0.8,0.4-1.3,0.5c-2.2,0.1-4.3-1.2-5.1-3.3
		c-0.1-2-1.3-2.5-1.8-2.5c-2-0.3-2.7,2.2-3,3.2c-0.6,2.5-0.1,5.2,1.6,7.3c2.1,2.7,5.4,4.1,8.8,3.9c6.4-0.1,10.5-7.1,13.8-13.9
		c1.9-0.4,3.7-0.8,5.6-1l3.4-0.5c1.7,6.9,4.8,12,8.8,14.1c2.4,1.3,5.2,1.4,7.7,0.3c2.5-1.2,4.2-3.6,4.6-6.3
		C55.1,41.1,54.4,38.1,52.8,36.6 M28.3,29.2c1.1-2.5,2.4-4.9,3.9-7.2c0,0.8-0.1,1.6-0.1,2.3c0,1.4,0.1,2.8,0.2,4.2
		C31.1,28.8,29.8,29,28.3,29.2"/>
	<path class="st1" d="M51.6,37.8c-0.7-0.7-1.5-1.5-1.3,0.6c0.4,3.6-1.5,6.2-3.8,6.5s-6.5-4-8-11.9c11.7-3.5,9.7-11.8,8.8-12.9
		c-0.8-0.9-1.2-0.9-1.4,0.6c-0.4,3.8-3,6.3-7.8,8c-0.3-6.8,1.5-15.5,7.5-25.4c1.8-3-0.6-1.2-1.2-0.9c-13,6.8-19.4,20.2-24.3,30
		c-6.5,2.2-8.2,6.3-8.4,7c-0.2,1-0.1,1.1,1,0.6c1.6-0.8,3.1-1.4,4.4-2c-2.1,3.7-4.2,6.1-6.7,6.2c-3.2,0.3-6.1-1.8-7-4.8
		c0-1.4-0.7-1.5-1.4,1c-1,3.4,1.6,9,8.7,9c5.4-0.1,9.2-6.4,12.7-13.6c4.1-1.1,6.7-1.1,11.5-2C37,45,43,51.4,49.2,48.7
		C53.6,46.8,53.8,40,51.6,37.8 M34.2,30c-2.8,0.6-5.7,1.1-8.6,1.4h-0.2c2.8-5.9,5.5-11.8,9-14.9C33.8,21,33.7,25.5,34.2,30"/>
</g>
</svg>
